<mxfile host="app.diagrams.net" modified="2024-01-23T03:10:30.280Z" agent="Mozilla/5.0 (Windows NT 10.0; Win64; x64) AppleWebKit/537.36 (KHTML, like Gecko) Chrome/120.0.0.0 Safari/537.36" etag="LJMFqSEU0xNDuU3MUZg_" version="22.1.21" type="device">
  <diagram name="페이지-1" id="jey0DVJOESzEDdXAZp_T">
    <mxGraphModel dx="1834" dy="1222" grid="0" gridSize="10" guides="1" tooltips="1" connect="1" arrows="1" fold="1" page="0" pageScale="1" pageWidth="827" pageHeight="1169" math="0" shadow="0">
      <root>
        <mxCell id="0" />
        <mxCell id="1" parent="0" />
        <mxCell id="AJboG8EYmES_ZHsn9y7Q-2" value="" style="rounded=0;whiteSpace=wrap;html=1;fontSize=16;" vertex="1" parent="1">
          <mxGeometry x="81" width="639" height="640" as="geometry" />
        </mxCell>
        <mxCell id="AJboG8EYmES_ZHsn9y7Q-54" style="edgeStyle=none;curved=1;rounded=0;orthogonalLoop=1;jettySize=auto;html=1;exitX=1;exitY=0.3333333333333333;exitDx=0;exitDy=0;exitPerimeter=0;entryX=0;entryY=0.5;entryDx=0;entryDy=0;fontSize=12;startSize=8;endSize=8;" edge="1" parent="1" source="AJboG8EYmES_ZHsn9y7Q-1" target="AJboG8EYmES_ZHsn9y7Q-13">
          <mxGeometry relative="1" as="geometry" />
        </mxCell>
        <mxCell id="AJboG8EYmES_ZHsn9y7Q-1" value="manager" style="shape=umlActor;verticalLabelPosition=bottom;verticalAlign=top;html=1;outlineConnect=0;fontSize=16;" vertex="1" parent="1">
          <mxGeometry x="-220" y="260" width="30" height="60" as="geometry" />
        </mxCell>
        <mxCell id="AJboG8EYmES_ZHsn9y7Q-3" value="일정관리 시스템" style="text;html=1;strokeColor=none;fillColor=none;align=center;verticalAlign=middle;whiteSpace=wrap;rounded=0;fontSize=16;" vertex="1" parent="1">
          <mxGeometry x="328.5" y="-30" width="143" height="21" as="geometry" />
        </mxCell>
        <mxCell id="AJboG8EYmES_ZHsn9y7Q-4" value="일정 생성" style="ellipse;whiteSpace=wrap;html=1;fontSize=16;" vertex="1" parent="1">
          <mxGeometry x="120" y="40" width="120" height="80" as="geometry" />
        </mxCell>
        <mxCell id="AJboG8EYmES_ZHsn9y7Q-5" value="선택 일정 조회" style="ellipse;whiteSpace=wrap;html=1;fontSize=16;" vertex="1" parent="1">
          <mxGeometry x="120" y="160" width="120" height="80" as="geometry" />
        </mxCell>
        <mxCell id="AJboG8EYmES_ZHsn9y7Q-56" style="edgeStyle=none;curved=1;rounded=0;orthogonalLoop=1;jettySize=auto;html=1;exitX=0.5;exitY=0;exitDx=0;exitDy=0;entryX=0.5;entryY=1;entryDx=0;entryDy=0;fontSize=12;startSize=8;endSize=8;" edge="1" parent="1" source="AJboG8EYmES_ZHsn9y7Q-6" target="AJboG8EYmES_ZHsn9y7Q-5">
          <mxGeometry relative="1" as="geometry" />
        </mxCell>
        <mxCell id="AJboG8EYmES_ZHsn9y7Q-6" value="전체 일정 조회" style="ellipse;whiteSpace=wrap;html=1;fontSize=16;" vertex="1" parent="1">
          <mxGeometry x="120" y="280" width="120" height="80" as="geometry" />
        </mxCell>
        <mxCell id="AJboG8EYmES_ZHsn9y7Q-18" style="edgeStyle=none;curved=1;rounded=0;orthogonalLoop=1;jettySize=auto;html=1;exitX=1;exitY=0.5;exitDx=0;exitDy=0;entryX=0;entryY=0.5;entryDx=0;entryDy=0;fontSize=12;startSize=8;endSize=8;dashed=1;" edge="1" parent="1" source="AJboG8EYmES_ZHsn9y7Q-7" target="AJboG8EYmES_ZHsn9y7Q-15">
          <mxGeometry relative="1" as="geometry" />
        </mxCell>
        <mxCell id="AJboG8EYmES_ZHsn9y7Q-7" value="일정 수정" style="ellipse;whiteSpace=wrap;html=1;fontSize=16;" vertex="1" parent="1">
          <mxGeometry x="120" y="400" width="120" height="80" as="geometry" />
        </mxCell>
        <mxCell id="AJboG8EYmES_ZHsn9y7Q-8" style="edgeStyle=none;curved=1;rounded=0;orthogonalLoop=1;jettySize=auto;html=1;exitX=0.5;exitY=0;exitDx=0;exitDy=0;fontSize=12;startSize=8;endSize=8;" edge="1" parent="1" source="AJboG8EYmES_ZHsn9y7Q-3" target="AJboG8EYmES_ZHsn9y7Q-3">
          <mxGeometry relative="1" as="geometry" />
        </mxCell>
        <mxCell id="AJboG8EYmES_ZHsn9y7Q-19" style="edgeStyle=none;curved=1;rounded=0;orthogonalLoop=1;jettySize=auto;html=1;entryX=0;entryY=0.5;entryDx=0;entryDy=0;fontSize=12;startSize=8;endSize=8;dashed=1;" edge="1" parent="1" source="AJboG8EYmES_ZHsn9y7Q-13" target="AJboG8EYmES_ZHsn9y7Q-15">
          <mxGeometry relative="1" as="geometry" />
        </mxCell>
        <mxCell id="AJboG8EYmES_ZHsn9y7Q-13" value="일정 삭제" style="ellipse;whiteSpace=wrap;html=1;fontSize=16;" vertex="1" parent="1">
          <mxGeometry x="120" y="520" width="120" height="80" as="geometry" />
        </mxCell>
        <mxCell id="AJboG8EYmES_ZHsn9y7Q-15" value="비밀번호 확인" style="ellipse;whiteSpace=wrap;html=1;fontSize=16;" vertex="1" parent="1">
          <mxGeometry x="560" y="400" width="120" height="80" as="geometry" />
        </mxCell>
        <mxCell id="AJboG8EYmES_ZHsn9y7Q-16" value="&amp;lt;&amp;lt;actor&amp;gt;&amp;gt;&lt;br&gt;DB" style="rounded=0;whiteSpace=wrap;html=1;fontSize=16;" vertex="1" parent="1">
          <mxGeometry x="800" y="290" width="120" height="60" as="geometry" />
        </mxCell>
        <mxCell id="AJboG8EYmES_ZHsn9y7Q-20" value="&amp;lt;&amp;lt;include&amp;gt;&amp;gt;" style="text;html=1;strokeColor=none;fillColor=none;align=center;verticalAlign=middle;whiteSpace=wrap;rounded=0;fontSize=16;" vertex="1" parent="1">
          <mxGeometry x="370" y="410" width="60" height="30" as="geometry" />
        </mxCell>
        <mxCell id="AJboG8EYmES_ZHsn9y7Q-22" value="&amp;lt;&amp;lt;include&amp;gt;&amp;gt;" style="text;html=1;strokeColor=none;fillColor=none;align=center;verticalAlign=middle;whiteSpace=wrap;rounded=0;fontSize=16;" vertex="1" parent="1">
          <mxGeometry x="260" y="500" width="60" height="30" as="geometry" />
        </mxCell>
        <mxCell id="AJboG8EYmES_ZHsn9y7Q-27" value="" style="endArrow=none;html=1;rounded=0;fontSize=12;startSize=8;endSize=8;curved=1;entryX=0;entryY=0.5;entryDx=0;entryDy=0;exitX=1;exitY=0.3333333333333333;exitDx=0;exitDy=0;exitPerimeter=0;" edge="1" parent="1" source="AJboG8EYmES_ZHsn9y7Q-1" target="AJboG8EYmES_ZHsn9y7Q-4">
          <mxGeometry width="50" height="50" relative="1" as="geometry">
            <mxPoint x="-9" y="250" as="sourcePoint" />
            <mxPoint x="41" y="200" as="targetPoint" />
          </mxGeometry>
        </mxCell>
        <mxCell id="AJboG8EYmES_ZHsn9y7Q-28" value="" style="endArrow=none;html=1;rounded=0;fontSize=12;startSize=8;endSize=8;curved=1;entryX=0;entryY=0.5;entryDx=0;entryDy=0;exitX=1;exitY=0.3333333333333333;exitDx=0;exitDy=0;exitPerimeter=0;" edge="1" parent="1" source="AJboG8EYmES_ZHsn9y7Q-1" target="AJboG8EYmES_ZHsn9y7Q-5">
          <mxGeometry width="50" height="50" relative="1" as="geometry">
            <mxPoint y="250" as="sourcePoint" />
            <mxPoint x="41" y="200" as="targetPoint" />
          </mxGeometry>
        </mxCell>
        <mxCell id="AJboG8EYmES_ZHsn9y7Q-29" value="" style="endArrow=none;html=1;rounded=0;fontSize=12;startSize=8;endSize=8;curved=1;entryX=0;entryY=0.5;entryDx=0;entryDy=0;" edge="1" parent="1" target="AJboG8EYmES_ZHsn9y7Q-6">
          <mxGeometry width="50" height="50" relative="1" as="geometry">
            <mxPoint x="-190" y="280" as="sourcePoint" />
            <mxPoint x="70" y="250" as="targetPoint" />
          </mxGeometry>
        </mxCell>
        <mxCell id="AJboG8EYmES_ZHsn9y7Q-32" value="" style="endArrow=none;html=1;rounded=0;fontSize=12;startSize=8;endSize=8;curved=1;entryX=0;entryY=0.5;entryDx=0;entryDy=0;" edge="1" parent="1" target="AJboG8EYmES_ZHsn9y7Q-7">
          <mxGeometry width="50" height="50" relative="1" as="geometry">
            <mxPoint x="-190" y="280" as="sourcePoint" />
            <mxPoint x="200" y="260" as="targetPoint" />
          </mxGeometry>
        </mxCell>
        <mxCell id="AJboG8EYmES_ZHsn9y7Q-35" style="edgeStyle=none;curved=1;rounded=0;orthogonalLoop=1;jettySize=auto;html=1;exitX=0;exitY=0.5;exitDx=0;exitDy=0;entryX=1;entryY=0.5;entryDx=0;entryDy=0;fontSize=12;startSize=8;endSize=8;dashed=1;" edge="1" parent="1" source="AJboG8EYmES_ZHsn9y7Q-34" target="AJboG8EYmES_ZHsn9y7Q-7">
          <mxGeometry relative="1" as="geometry" />
        </mxCell>
        <mxCell id="AJboG8EYmES_ZHsn9y7Q-36" style="edgeStyle=none;curved=1;rounded=0;orthogonalLoop=1;jettySize=auto;html=1;fontSize=12;startSize=8;endSize=8;dashed=1;" edge="1" parent="1" source="AJboG8EYmES_ZHsn9y7Q-34" target="AJboG8EYmES_ZHsn9y7Q-13">
          <mxGeometry relative="1" as="geometry" />
        </mxCell>
        <mxCell id="AJboG8EYmES_ZHsn9y7Q-34" value="비밀번호 오류 출력" style="ellipse;whiteSpace=wrap;html=1;fontSize=16;" vertex="1" parent="1">
          <mxGeometry x="560" y="510" width="120" height="80" as="geometry" />
        </mxCell>
        <mxCell id="AJboG8EYmES_ZHsn9y7Q-37" value="&amp;lt;&amp;lt;extend&amp;gt;&amp;gt;" style="text;html=1;strokeColor=none;fillColor=none;align=center;verticalAlign=middle;whiteSpace=wrap;rounded=0;fontSize=16;" vertex="1" parent="1">
          <mxGeometry x="370" y="560" width="60" height="30" as="geometry" />
        </mxCell>
        <mxCell id="AJboG8EYmES_ZHsn9y7Q-38" value="&amp;lt;&amp;lt;extend&amp;gt;&amp;gt;" style="text;html=1;strokeColor=none;fillColor=none;align=center;verticalAlign=middle;whiteSpace=wrap;rounded=0;fontSize=16;" vertex="1" parent="1">
          <mxGeometry x="450" y="500" width="60" height="30" as="geometry" />
        </mxCell>
        <mxCell id="AJboG8EYmES_ZHsn9y7Q-40" value="" style="endArrow=none;html=1;rounded=0;fontSize=12;startSize=8;endSize=8;curved=1;entryX=0;entryY=0.5;entryDx=0;entryDy=0;exitX=1;exitY=0.5;exitDx=0;exitDy=0;" edge="1" parent="1" source="AJboG8EYmES_ZHsn9y7Q-15" target="AJboG8EYmES_ZHsn9y7Q-16">
          <mxGeometry width="50" height="50" relative="1" as="geometry">
            <mxPoint x="560" y="440" as="sourcePoint" />
            <mxPoint x="610" y="390" as="targetPoint" />
          </mxGeometry>
        </mxCell>
        <mxCell id="AJboG8EYmES_ZHsn9y7Q-41" value="" style="endArrow=none;html=1;rounded=0;fontSize=12;startSize=8;endSize=8;curved=1;entryX=0;entryY=0.5;entryDx=0;entryDy=0;" edge="1" parent="1" target="AJboG8EYmES_ZHsn9y7Q-16">
          <mxGeometry width="50" height="50" relative="1" as="geometry">
            <mxPoint x="240" y="80" as="sourcePoint" />
            <mxPoint x="290" y="30" as="targetPoint" />
          </mxGeometry>
        </mxCell>
        <mxCell id="AJboG8EYmES_ZHsn9y7Q-42" value="" style="endArrow=none;html=1;rounded=0;fontSize=12;startSize=8;endSize=8;curved=1;entryX=0;entryY=0.5;entryDx=0;entryDy=0;" edge="1" parent="1" target="AJboG8EYmES_ZHsn9y7Q-16">
          <mxGeometry width="50" height="50" relative="1" as="geometry">
            <mxPoint x="240" y="200" as="sourcePoint" />
            <mxPoint x="290" y="150" as="targetPoint" />
          </mxGeometry>
        </mxCell>
        <mxCell id="AJboG8EYmES_ZHsn9y7Q-45" value="createSchedule()" style="text;html=1;strokeColor=none;fillColor=none;align=center;verticalAlign=middle;whiteSpace=wrap;rounded=0;fontSize=16;" vertex="1" parent="1">
          <mxGeometry x="-20" y="120" width="60" height="30" as="geometry" />
        </mxCell>
        <mxCell id="AJboG8EYmES_ZHsn9y7Q-46" value="checkSchedule()" style="text;html=1;strokeColor=none;fillColor=none;align=center;verticalAlign=middle;whiteSpace=wrap;rounded=0;fontSize=16;" vertex="1" parent="1">
          <mxGeometry x="-20" y="200" width="60" height="30" as="geometry" />
        </mxCell>
        <mxCell id="AJboG8EYmES_ZHsn9y7Q-48" value="checkAllSchedule()" style="text;html=1;strokeColor=none;fillColor=none;align=center;verticalAlign=middle;whiteSpace=wrap;rounded=0;fontSize=16;" vertex="1" parent="1">
          <mxGeometry x="-20" y="280" width="60" height="30" as="geometry" />
        </mxCell>
        <mxCell id="AJboG8EYmES_ZHsn9y7Q-49" value="modifySchedule()" style="text;html=1;strokeColor=none;fillColor=none;align=center;verticalAlign=middle;whiteSpace=wrap;rounded=0;fontSize=16;" vertex="1" parent="1">
          <mxGeometry x="-20" y="360" width="60" height="30" as="geometry" />
        </mxCell>
        <mxCell id="AJboG8EYmES_ZHsn9y7Q-50" value="deleteSchedule()" style="text;html=1;strokeColor=none;fillColor=none;align=center;verticalAlign=middle;whiteSpace=wrap;rounded=0;fontSize=16;" vertex="1" parent="1">
          <mxGeometry x="-20" y="440" width="60" height="30" as="geometry" />
        </mxCell>
      </root>
    </mxGraphModel>
  </diagram>
</mxfile>
